<?xml version="1.0" encoding="utf-8"?>
<svg viewBox="0 0 750 240" preserveAspectRatio="xMinYMid slice" xmlns="http://www.w3.org/2000/svg">
  <defs/>
  <path stroke="#FFFFFF" stroke-width="5" stroke-miterlimit="10" d="M 212.372 179.486 C 193.161 212.695 157.246 235.045 116.116 235.045 C 99.962 235.045 85.573 218.577 76.28 192.896 C 72.007 181.055 68.791 167.292 66.988 152.275 C 74.28 157.764 82.24 163.019 90.71 167.92 C 99.218 172.82 107.726 177.095 116.116 180.662 C 130.035 186.622 143.562 190.739 155.952 192.935 C 182.848 197.678 204.295 193.445 212.372 179.486 Z" style=""/>
  <path stroke="#FFFFFF" stroke-width="5" stroke-miterlimit="10" d="M 165.244 95.541 C 157.951 90.052 149.993 84.798 141.523 79.897 C 133.015 74.996 124.507 70.762 116.116 67.154 C 102.197 61.194 88.67 57.117 76.28 54.883 C 49.384 50.099 27.936 54.334 19.859 68.291 C 39.072 35.082 74.987 12.733 116.116 12.733 C 132.27 12.733 146.659 29.201 155.952 54.883 C 160.225 66.723 163.44 80.485 165.244 95.541 Z" style=""/>
  <path stroke="#FFFFFF" stroke-width="5" stroke-miterlimit="10" d="M 116.116 235.045 C 74.987 235.045 39.072 212.695 19.859 179.486 C 11.783 165.489 18.88 144.825 36.445 123.928 C 44.562 114.322 54.872 104.637 66.988 95.541 C 65.89 104.598 65.302 114.087 65.302 123.928 C 65.302 133.769 65.89 143.258 66.988 152.315 C 68.791 167.331 72.007 181.133 76.28 192.935 C 85.612 218.577 99.962 235.045 116.116 235.045 Z" style=""/>
  <path stroke="#FFFFFF" stroke-width="5" stroke-miterlimit="10" d="M 116.116 67.154 C 107.726 70.721 99.218 74.996 90.71 79.897 C 82.201 84.798 74.28 90.052 66.988 95.541 C 54.872 104.637 44.562 114.282 36.445 123.928 C 18.88 144.825 11.783 165.528 19.859 179.486 C 10.41 163.136 5 144.159 5 123.889 C 5 103.618 10.41 84.681 19.859 68.291 C 27.936 54.294 49.384 50.099 76.28 54.883 C 88.67 57.117 102.197 61.194 116.116 67.154 Z" style=""/>
  <path stroke="#FFFFFF" stroke-width="5" stroke-miterlimit="10" d="M 132.215 15.125 C 132.177 15.011 694.077 -13.035 737.995 29.683 C 753.203 44.476 745.294 131.093 739.042 170.428 C 728.947 233.951 196.423 195.765 155.855 193.092 C 145.571 192.414 127.466 186.583 116.156 180.623 C 122.974 177.056 141.34 172.629 166.739 150.998 C 192.137 129.366 198.034 85.595 203.059 81.84 C 207.675 78.392 166.025 127.611 172.62 117.966 C 182.559 103.415 183.621 98.505 180.998 75.192 C 178.481 52.83 134.208 19.366 132.215 15.125 Z" style=""/>
  <path stroke="#FFFFFF" stroke-width="5" stroke-miterlimit="10" d="M 195.787 123.889 C 187.672 133.495 177.359 143.179 165.244 152.275 C 166.342 143.217 166.93 133.73 166.93 123.889 C 166.93 114.048 166.342 104.56 165.244 95.502 C 163.44 80.485 160.225 66.684 155.952 54.883 C 146.659 29.201 132.27 12.733 116.116 12.733 C 157.246 12.733 193.161 35.082 212.372 68.291 C 220.449 82.288 213.353 102.991 195.787 123.889 Z" style=""/>
  <text style="fill: rgb(255, 255, 255); font-family: 'Apple SD Gothic Neo'; font-size: 28px; letter-spacing: -1.5px; white-space: pre;" transform="matrix(4.83442, 0, 0, 4.83442, -852.566711, -201.315125)"><tspan style="font-weight: 900;" x="223.428" y="72.605">Bright</tspan><tspan style="font-weight: 100; letter-spacing: -2.5px;">Blur</tspan><tspan x="223.428" dy="1em">​</tspan></text>
  <text style="white-space: pre; fill: rgb(51, 51, 51); font-family: Arial, sans-serif; font-size: 26px;" x="797.774" y="28.044"> </text>
</svg>