<svg xmlns="http://www.w3.org/2000/svg" version="1.1" xmlns:xlink="http://www.w3.org/1999/xlink" xmlns:svgjs="http://svgjs.dev/svgjs" viewBox="0 0 800 800"><defs><linearGradient x1="50%" y1="0%" x2="50%" y2="100%" id="ffflurry-grad" gradientTransform="rotate(270)"><stop stop-color="hsl(270 60% 50%)" stop-opacity="1" offset="0%"></stop><stop stop-color="hsl(270 80% 60%)" stop-opacity="1" offset="45%"></stop><stop stop-color="hsl(270 30% 90%)" stop-opacity="1" offset="100%"></stop></linearGradient></defs><rect width="100%" height="100%" fill="hsl(270 60% 50%)"></rect><g fill="url(#ffflurry-grad)"><rect width="560" height="3" x="-148" y="220.5" rx="1.5" transform="rotate(62, 132, 222)" opacity="0.32"></rect><rect width="366" height="3" x="75" y="542.5" rx="1.5" transform="rotate(62, 258, 544)" opacity="0.26"></rect><rect width="644" height="3" x="220" y="648.5" rx="1.5" transform="rotate(62, 542, 650)" opacity="0.22"></rect><rect width="344" height="3" x="-143" y="280.5" rx="1.5" transform="rotate(62, 29, 282)" opacity="0.16"></rect><rect width="481" height="3" x="-68.5" y="763.5" rx="1.5" transform="rotate(62, 172, 765)" opacity="0.30"></rect><rect width="385" height="3" x="566.5" y="51.5" rx="1.5" transform="rotate(62, 759, 53)" opacity="0.47"></rect><rect width="66" height="3" x="242" y="465.5" rx="1.5" transform="rotate(62, 275, 467)" opacity="0.84"></rect><rect width="485" height="3" x="260.5" y="732.5" rx="1.5" transform="rotate(62, 503, 734)" opacity="0.11"></rect><rect width="462" height="3" x="491" y="130.5" rx="1.5" transform="rotate(62, 722, 132)" opacity="0.18"></rect><rect width="477" height="3" x="394.5" y="668.5" rx="1.5" transform="rotate(62, 633, 670)" opacity="0.32"></rect><rect width="160" height="3" x="272" y="52.5" rx="1.5" transform="rotate(62, 352, 54)" opacity="0.11"></rect><rect width="548" height="3" x="-150" y="671.5" rx="1.5" transform="rotate(62, 124, 673)" opacity="0.21"></rect><rect width="195" height="3" x="190.5" y="729.5" rx="1.5" transform="rotate(62, 288, 731)" opacity="0.25"></rect><rect width="533" height="3" x="443.5" y="293.5" rx="1.5" transform="rotate(62, 710, 295)" opacity="0.45"></rect><rect width="330" height="3" x="250" y="168.5" rx="1.5" transform="rotate(62, 415, 170)" opacity="0.47"></rect><rect width="430" height="3" x="-145" y="462.5" rx="1.5" transform="rotate(62, 70, 464)" opacity="0.12"></rect><rect width="317" height="3" x="64.5" y="162.5" rx="1.5" transform="rotate(62, 223, 164)" opacity="0.33"></rect><rect width="528" height="3" x="-40" y="687.5" rx="1.5" transform="rotate(62, 224, 689)" opacity="0.93"></rect><rect width="179" height="3" x="118.5" y="377.5" rx="1.5" transform="rotate(62, 208, 379)" opacity="0.74"></rect><rect width="362" height="3" x="582" y="346.5" rx="1.5" transform="rotate(62, 763, 348)" opacity="0.97"></rect><rect width="377" height="3" x="482.5" y="43.5" rx="1.5" transform="rotate(62, 671, 45)" opacity="0.39"></rect><rect width="471" height="3" x="385.5" y="299.5" rx="1.5" transform="rotate(62, 621, 301)" opacity="0.38"></rect><rect width="263" height="3" x="253.5" y="669.5" rx="1.5" transform="rotate(62, 385, 671)" opacity="0.11"></rect><rect width="425" height="3" x="-87.5" y="360.5" rx="1.5" transform="rotate(62, 125, 362)" opacity="0.07"></rect><rect width="646" height="3" x="274" y="754.5" rx="1.5" transform="rotate(62, 597, 756)" opacity="0.40"></rect><rect width="93" height="3" x="332.5" y="734.5" rx="1.5" transform="rotate(62, 379, 736)" opacity="0.54"></rect><rect width="312" height="3" x="359" y="374.5" rx="1.5" transform="rotate(62, 515, 376)" opacity="0.34"></rect><rect width="230" height="3" x="657" y="659.5" rx="1.5" transform="rotate(62, 772, 661)" opacity="0.12"></rect><rect width="467" height="3" x="-52.5" y="597.5" rx="1.5" transform="rotate(62, 181, 599)" opacity="0.19"></rect><rect width="126" height="3" x="385" y="611.5" rx="1.5" transform="rotate(62, 448, 613)" opacity="0.51"></rect><rect width="203" height="3" x="654.5" y="560.5" rx="1.5" transform="rotate(62, 756, 562)" opacity="0.57"></rect><rect width="24" height="3" x="324" y="776.5" rx="1.5" transform="rotate(62, 336, 778)" opacity="0.61"></rect><rect width="220" height="3" x="-52" y="562.5" rx="1.5" transform="rotate(62, 58, 564)" opacity="0.65"></rect><rect width="110" height="3" x="269" y="385.5" rx="1.5" transform="rotate(62, 324, 387)" opacity="0.91"></rect><rect width="198" height="3" x="160" y="265.5" rx="1.5" transform="rotate(62, 259, 267)" opacity="0.31"></rect><rect width="794" height="3" x="0" y="494.5" rx="1.5" transform="rotate(62, 397, 496)" opacity="0.24"></rect><rect width="215" height="3" x="-66.5" y="46.5" rx="1.5" transform="rotate(62, 41, 48)" opacity="0.41"></rect><rect width="291" height="3" x="96.5" y="88.5" rx="1.5" transform="rotate(62, 242, 90)" opacity="0.14"></rect><rect width="376" height="3" x="360" y="119.5" rx="1.5" transform="rotate(62, 548, 121)" opacity="0.33"></rect><rect width="303" height="3" x="66.5" y="25.5" rx="1.5" transform="rotate(62, 218, 27)" opacity="0.72"></rect><rect width="37" height="3" x="624.5" y="577.5" rx="1.5" transform="rotate(62, 643, 579)" opacity="0.31"></rect><rect width="214" height="3" x="374" y="210.5" rx="1.5" transform="rotate(62, 481, 212)" opacity="0.36"></rect><rect width="174" height="3" x="34" y="128.5" rx="1.5" transform="rotate(62, 121, 130)" opacity="0.77"></rect><rect width="553" height="3" x="44.5" y="603.5" rx="1.5" transform="rotate(62, 321, 605)" opacity="0.78"></rect><rect width="73" height="3" x="257.5" y="39.5" rx="1.5" transform="rotate(62, 294, 41)" opacity="0.44"></rect><rect width="564" height="3" x="269" y="559.5" rx="1.5" transform="rotate(62, 551, 561)" opacity="0.16"></rect><rect width="496" height="3" x="-211" y="666.5" rx="1.5" transform="rotate(62, 37, 668)" opacity="0.69"></rect><rect width="278" height="3" x="369" y="47.5" rx="1.5" transform="rotate(62, 508, 49)" opacity="0.75"></rect><rect width="329" height="3" x="267.5" y="83.5" rx="1.5" transform="rotate(62, 432, 85)" opacity="0.41"></rect><rect width="64" height="3" x="353" y="19.5" rx="1.5" transform="rotate(62, 385, 21)" opacity="0.68"></rect><rect width="437" height="3" x="-179.5" y="180.5" rx="1.5" transform="rotate(62, 39, 182)" opacity="0.69"></rect><rect width="200" height="3" x="343" y="20.5" rx="1.5" transform="rotate(62, 443, 22)" opacity="0.59"></rect><rect width="353" height="3" x="263.5" y="759.5" rx="1.5" transform="rotate(62, 440, 761)" opacity="0.59"></rect><rect width="422" height="3" x="384" y="45.5" rx="1.5" transform="rotate(62, 595, 47)" opacity="0.58"></rect><rect width="407" height="3" x="291.5" y="482.5" rx="1.5" transform="rotate(62, 495, 484)" opacity="0.54"></rect><rect width="328" height="3" x="-10" y="50.5" rx="1.5" transform="rotate(62, 154, 52)" opacity="0.59"></rect><rect width="125" height="3" x="646.5" y="217.5" rx="1.5" transform="rotate(62, 709, 219)" opacity="0.66"></rect><rect width="355" height="3" x="484.5" y="375.5" rx="1.5" transform="rotate(62, 662, 377)" opacity="0.28"></rect><rect width="95" height="3" x="716.5" y="438.5" rx="1.5" transform="rotate(62, 764, 440)" opacity="0.56"></rect><rect width="45" height="3" x="35.5" y="757.5" rx="1.5" transform="rotate(62, 58, 759)" opacity="0.10"></rect><rect width="244" height="3" x="-93" y="101.5" rx="1.5" transform="rotate(62, 29, 103)" opacity="0.92"></rect><rect width="257" height="3" x="531.5" y="516.5" rx="1.5" transform="rotate(62, 660, 518)" opacity="0.81"></rect><rect width="429" height="3" x="-181.5" y="390.5" rx="1.5" transform="rotate(62, 33, 392)" opacity="0.16"></rect><rect width="413" height="3" x="520.5" y="750.5" rx="1.5" transform="rotate(62, 727, 752)" opacity="0.71"></rect><rect width="363" height="3" x="-81.5" y="291.5" rx="1.5" transform="rotate(62, 100, 293)" opacity="0.39"></rect><rect width="66" height="3" x="640" y="445.5" rx="1.5" transform="rotate(62, 673, 447)" opacity="0.28"></rect><rect width="294" height="3" x="14" y="492.5" rx="1.5" transform="rotate(62, 161, 494)" opacity="0.92"></rect><rect width="154" height="3" x="324" y="314.5" rx="1.5" transform="rotate(62, 401, 316)" opacity="0.37"></rect><rect width="410" height="3" x="336" y="268.5" rx="1.5" transform="rotate(62, 541, 270)" opacity="0.16"></rect><rect width="99" height="3" x="539.5" y="453.5" rx="1.5" transform="rotate(62, 589, 455)" opacity="0.77"></rect><rect width="427" height="3" x="522.5" y="496.5" rx="1.5" transform="rotate(62, 736, 498)" opacity="0.83"></rect><rect width="298" height="3" x="558" y="638.5" rx="1.5" transform="rotate(62, 707, 640)" opacity="0.28"></rect><rect width="340" height="3" x="-81" y="26.5" rx="1.5" transform="rotate(62, 89, 28)" opacity="0.88"></rect><rect width="519" height="3" x="71.5" y="155.5" rx="1.5" transform="rotate(62, 331, 157)" opacity="0.15"></rect><rect width="64" height="3" x="617" y="211.5" rx="1.5" transform="rotate(62, 649, 213)" opacity="0.94"></rect><rect width="190" height="3" x="514" y="162.5" rx="1.5" transform="rotate(62, 609, 164)" opacity="0.68"></rect><rect width="130" height="3" x="707" y="216.5" rx="1.5" transform="rotate(62, 772, 218)" opacity="0.34"></rect></g></svg>