<svg width="900" height="150" xmlns="http://www.w3.org/2000/svg" version="1.1">

 <g>
  <title>Layer 1</title>
  <path id="svg_1" fill="#56ced6" d="m0,46l21.5,2.7c21.5,2.6 64.5,8 107.3,5.1c42.9,-2.8 85.5,-13.8 128.4,-20.3c42.8,-6.5 85.8,-8.5 128.6,-15.8c42.9,-7.4 85.5,-20 128.4,-12.4c42.8,7.7 85.8,35.7 128.6,43c42.9,7.4 85.5,-6 128.4,-11c42.8,-5 85.8,-1.6 107.3,0l21.5,1.7l0,190l-21.5,0c-21.5,0 -64.5,0 -107.3,0c-42.9,0 -85.5,0 -128.4,0c-42.8,0 -85.8,0 -128.6,0c-42.9,0 -85.5,0 -128.4,0c-42.8,0 -85.8,0 -128.6,0c-42.9,0 -85.5,0 -128.4,0c-42.8,0 -85.8,0 -107.3,0l-21.5,0l0,-183z"/>
  <path id="svg_2" fill="#3ac3cc" d="m0,101l21.5,-6.3c21.5,-6.4 64.5,-19 107.3,-21c42.9,-2 85.5,6.6 128.4,13.8c42.8,7.2 85.8,12.8 128.6,10.7c42.9,-2.2 85.5,-12.2 128.4,-24.9c42.8,-12.6 85.8,-28 128.6,-34.3c42.9,-6.3 85.5,-3.7 128.4,-0.2c42.8,3.5 85.8,7.9 107.3,10l21.5,2.2l0,178l-21.5,0c-21.5,0 -64.5,0 -107.3,0c-42.9,0 -85.5,0 -128.4,0c-42.8,0 -85.8,0 -128.6,0c-42.9,0 -85.5,0 -128.4,0c-42.8,0 -85.8,0 -128.6,0c-42.9,0 -85.5,0 -128.4,0c-42.8,0 -85.8,0 -107.3,0l-21.5,0l0,-128z"/>
  <path id="svg_3" fill="#00b8c2" d="m0,127l21.5,-6.2c21.5,-6.1 64.5,-18.5 107.3,-24.6c42.9,-6.2 85.5,-6.2 128.4,-2.5c42.8,3.6 85.8,11 128.6,12.5c42.9,1.5 85.5,-2.9 128.4,-8.5c42.8,-5.7 85.8,-12.7 128.6,-12.5c42.9,0.1 85.5,7.5 128.4,9.6c42.8,2.2 85.8,-0.8 107.3,-2.3l21.5,-1.5l0,138l-21.5,0c-21.5,0 -64.5,0 -107.3,0c-42.9,0 -85.5,0 -128.4,0c-42.8,0 -85.8,0 -128.6,0c-42.9,0 -85.5,0 -128.4,0c-42.8,0 -85.8,0 -128.6,0c-42.9,0 -85.5,0 -128.4,0c-42.8,0 -85.8,0 -107.3,0l-21.5,0l0,-102z"/>
 </g>
</svg>